<svg width="74" height="68" viewBox="0 0 74 68" fill="none" xmlns="http://www.w3.org/2000/svg">
<mask id="path-1-inside-1_2033_380" fill="white">
<rect x="0.926453" y="4.8222" width="67.1557" height="55.3047" rx="0.5"/>
</mask>
<rect x="0.926453" y="4.8222" width="67.1557" height="55.3047" rx="0.5" stroke="#5577F2" stroke-width="3" mask="url(#path-1-inside-1_2033_380)"/>
<mask id="path-2-inside-2_2033_380" fill="white">
<rect x="4.87677" y="20.6236" width="7.90067" height="7.90067" rx="0.5"/>
</mask>
<rect x="4.87677" y="20.6236" width="7.90067" height="7.90067" rx="0.5" stroke="#5577F2" stroke-width="3" mask="url(#path-2-inside-2_2033_380)"/>
<rect x="9.57709" y="1.62189" width="6.40067" height="10.351" fill="white" stroke="#5577F2" stroke-width="1.5"/>
<rect x="29.3288" y="1.62189" width="6.40067" height="10.351" fill="white" stroke="#5577F2" stroke-width="1.5"/>
<rect x="49.0806" y="1.62189" width="6.40067" height="10.351" fill="white" stroke="#5577F2" stroke-width="1.5"/>
<mask id="path-6-inside-3_2033_380" fill="white">
<rect x="4.87677" y="32.4745" width="7.90067" height="7.90067" rx="0.5"/>
</mask>
<rect x="4.87677" y="32.4745" width="7.90067" height="7.90067" rx="0.5" stroke="#5577F2" stroke-width="3" mask="url(#path-6-inside-3_2033_380)"/>
<mask id="path-7-inside-4_2033_380" fill="white">
<rect x="4.87677" y="44.3257" width="7.90067" height="7.90067" rx="0.5"/>
</mask>
<rect x="4.87677" y="44.3257" width="7.90067" height="7.90067" rx="0.5" stroke="#5577F2" stroke-width="3" mask="url(#path-7-inside-4_2033_380)"/>
<mask id="path-8-inside-5_2033_380" fill="white">
<rect x="16.7279" y="20.6236" width="7.90067" height="7.90067" rx="0.5"/>
</mask>
<rect x="16.7279" y="20.6236" width="7.90067" height="7.90067" rx="0.5" stroke="#5577F2" stroke-width="3" mask="url(#path-8-inside-5_2033_380)"/>
<mask id="path-9-inside-6_2033_380" fill="white">
<rect x="16.7279" y="32.4745" width="7.90067" height="7.90067" rx="0.5"/>
</mask>
<rect x="16.7279" y="32.4745" width="7.90067" height="7.90067" rx="0.5" stroke="#5577F2" stroke-width="3" mask="url(#path-9-inside-6_2033_380)"/>
<mask id="path-10-inside-7_2033_380" fill="white">
<rect x="16.7279" y="44.3257" width="7.90067" height="7.90067" rx="0.5"/>
</mask>
<rect x="16.7279" y="44.3257" width="7.90067" height="7.90067" rx="0.5" stroke="#5577F2" stroke-width="3" mask="url(#path-10-inside-7_2033_380)"/>
<mask id="path-11-inside-8_2033_380" fill="white">
<rect x="28.5788" y="20.6236" width="7.90067" height="7.90067" rx="0.5"/>
</mask>
<rect x="28.5788" y="20.6236" width="7.90067" height="7.90067" rx="0.5" stroke="#5577F2" stroke-width="3" mask="url(#path-11-inside-8_2033_380)"/>
<mask id="path-12-inside-9_2033_380" fill="white">
<rect x="28.5788" y="32.4745" width="7.90067" height="7.90067" rx="0.5"/>
</mask>
<rect x="28.5788" y="32.4745" width="7.90067" height="7.90067" rx="0.5" stroke="#5577F2" stroke-width="3" mask="url(#path-12-inside-9_2033_380)"/>
<mask id="path-13-inside-10_2033_380" fill="white">
<rect x="28.5788" y="44.3257" width="7.90067" height="7.90067" rx="0.5"/>
</mask>
<rect x="28.5788" y="44.3257" width="7.90067" height="7.90067" rx="0.5" stroke="#5577F2" stroke-width="3" mask="url(#path-13-inside-10_2033_380)"/>
<mask id="path-14-inside-11_2033_380" fill="white">
<rect x="40.4299" y="20.6236" width="7.90067" height="7.90067" rx="0.5"/>
</mask>
<rect x="40.4299" y="20.6236" width="7.90067" height="7.90067" rx="0.5" stroke="#5577F2" stroke-width="3" mask="url(#path-14-inside-11_2033_380)"/>
<mask id="path-15-inside-12_2033_380" fill="white">
<rect x="52.2809" y="20.6236" width="7.90067" height="7.90067" rx="0.5"/>
</mask>
<rect x="52.2809" y="20.6236" width="7.90067" height="7.90067" rx="0.5" stroke="#5577F2" stroke-width="3" mask="url(#path-15-inside-12_2033_380)"/>
<rect x="40.4299" y="34.4498" width="32.6438" height="32.6438" rx="16.3219" fill="white" stroke="#5577F2" stroke-width="1.5"/>
<rect x="44.5084" y="38.0539" width="25.1096" height="25.1096" rx="12.5548" stroke="#5577F2" stroke-width="1.5"/>
<path d="M56.5199 59.0951V42.7315H57.5682V59.0951H56.5199ZM59.5433 47.9666C59.4836 47.4083 59.2322 46.9737 58.789 46.6626C58.3501 46.3515 57.7791 46.196 57.076 46.196C56.5816 46.196 56.1576 46.2705 55.8039 46.4197C55.4503 46.5688 55.1797 46.7712 54.9922 47.0269C54.8047 47.2826 54.7088 47.5745 54.7045 47.9026C54.7045 48.1754 54.7663 48.4119 54.8899 48.6121C55.0177 48.8124 55.1903 48.9829 55.4076 49.1235C55.625 49.2599 55.8657 49.3749 56.1299 49.4687C56.3941 49.5624 56.6605 49.6413 56.9289 49.7052L58.1562 50.012C58.6505 50.1271 59.1257 50.2826 59.5816 50.4786C60.0419 50.6746 60.4531 50.9218 60.8153 51.2201C61.1818 51.5184 61.4716 51.8785 61.6846 52.3004C61.8977 52.7222 62.0042 53.2166 62.0042 53.7833C62.0042 54.5504 61.8082 55.2258 61.4162 55.8096C61.0241 56.3891 60.4574 56.843 59.7159 57.1711C58.9787 57.495 58.0859 57.6569 57.0376 57.6569C56.0191 57.6569 55.1349 57.4992 54.3849 57.1839C53.6392 56.8685 53.0554 56.4083 52.6335 55.8032C52.2159 55.1981 51.99 54.4609 51.9559 53.5916H54.289C54.3231 54.0475 54.4638 54.4268 54.7109 54.7293C54.9581 55.0319 55.2798 55.2577 55.6761 55.4069C56.0767 55.556 56.5241 55.6306 57.0184 55.6306C57.5341 55.6306 57.9858 55.5539 58.3736 55.4005C58.7656 55.2428 59.0724 55.0255 59.294 54.7485C59.5156 54.4673 59.6285 54.1391 59.6328 53.7641C59.6285 53.4232 59.5284 53.142 59.3324 52.9204C59.1363 52.6945 58.8615 52.507 58.5078 52.3579C58.1584 52.2045 57.7493 52.0681 57.2805 51.9488L55.7912 51.5653C54.713 51.2883 53.8608 50.8685 53.2343 50.306C52.6122 49.7393 52.3011 48.9871 52.3011 48.0496C52.3011 47.2783 52.5099 46.6029 52.9275 46.0234C53.3494 45.4438 53.9226 44.9943 54.647 44.6746C55.3714 44.3508 56.1917 44.1889 57.1079 44.1889C58.0369 44.1889 58.8508 44.3508 59.5497 44.6746C60.2528 44.9943 60.8047 45.4396 61.2052 46.0106C61.6058 46.5773 61.8125 47.2293 61.8253 47.9666H59.5433Z" fill="#5577F2"/>
</svg>
