<svg version="1.1" id="Layer_1" xmlns="http://www.w3.org/2000/svg" xmlns:xlink="http://www.w3.org/1999/xlink" x="0px" y="0px"
	 width="100%" viewBox="0 0 976 976" enable-background="new 0 0 976 976" xml:space="preserve">
<path fill="#000000" opacity="1.000000" stroke="none" 
	d="
M335.306396,504.838318 
	C335.512909,507.634674 335.591980,509.969421 335.930786,512.265808 
	C337.290924,521.485168 337.322510,521.465637 346.690582,522.617798 
	C352.799194,523.369202 358.897034,524.208740 365.007935,524.940063 
	C369.422394,525.468384 372.183197,527.508850 373.473663,532.062927 
	C375.884827,540.571777 379.423370,548.682068 383.724579,556.415527 
	C385.672272,559.917358 385.471954,562.949402 383.053497,566.115723 
	C377.998444,572.733948 373.162628,579.520752 368.053436,586.095886 
	C366.158142,588.534973 365.751587,590.317322 367.872101,592.998718 
	C376.084991,603.383728 385.480591,612.523193 395.733490,620.855652 
	C398.027893,622.720215 399.689911,622.415283 401.854248,620.743591 
	C408.314117,615.754089 414.971771,611.020020 421.413788,606.008240 
	C425.192505,603.068420 428.792358,602.935181 432.952637,605.212524 
	C440.269012,609.217651 447.927734,612.541626 455.985748,614.734009 
	C460.899628,616.070862 462.977234,618.984985 463.451111,623.968384 
	C464.158478,631.406555 465.546234,638.777405 466.428680,646.202576 
	C466.888580,650.072449 468.616272,652.220459 472.628754,652.435425 
	C485.433105,653.121277 498.221680,653.813416 511.001282,651.857361 
	C513.700012,651.444275 514.666443,650.190491 515.018555,647.736694 
	C516.198669,639.511719 517.600342,631.317017 518.675415,623.079163 
	C519.208740,618.992798 520.955505,616.378601 525.031982,615.134155 
	C533.809509,612.454285 542.249268,608.915955 550.304016,604.487671 
	C553.600586,602.675293 556.695679,603.165405 559.637512,605.371094 
	C566.300049,610.366394 573.058411,615.239075 579.604309,620.382385 
	C582.083801,622.330566 583.951355,622.659790 586.555786,620.596619 
	C596.924255,612.383179 606.230408,603.154053 614.385864,592.733276 
	C616.132874,590.501099 616.105347,588.815186 614.370178,586.597900 
	C609.544983,580.432068 605.027710,574.024170 600.166992,567.887573 
	C596.792725,563.627502 596.012695,559.626160 598.961060,554.663696 
	C602.964905,547.924377 606.022339,540.660400 607.954163,533.041687 
	C609.309937,527.694763 612.635315,525.432800 617.859009,524.834473 
	C625.455383,523.964417 632.996948,522.602966 640.598755,521.799500 
	C644.110352,521.428406 645.384949,519.958984 645.783630,516.514587 
	C647.265930,503.709625 647.083557,490.949371 645.747559,478.152069 
	C645.408020,474.899750 644.109924,473.555450 640.858032,473.149414 
	C632.448242,472.099396 624.079956,470.715668 615.696106,469.458374 
	C614.875305,469.335327 614.017456,469.283356 613.251892,468.997284 
	C608.836060,467.347595 603.521118,451.700714 606.026794,447.731659 
	C607.380798,445.586914 609.354187,444.578583 611.930359,444.697083 
	C614.914551,444.834320 617.559692,446.199799 617.998169,448.999603 
	C619.192017,456.622498 624.565674,457.355682 630.651306,457.930573 
	C637.265564,458.555359 643.811340,459.873016 650.410522,460.700409 
	C654.626770,461.229004 657.070496,463.378754 657.808228,467.540558 
	C661.328247,487.397675 661.409973,507.257111 657.910400,527.128113 
	C657.131592,531.550415 654.397888,533.669922 650.099792,534.225891 
	C642.350403,535.228394 634.621582,536.396301 626.863647,537.323425 
	C622.893921,537.797852 620.210693,539.170105 618.970764,543.463806 
	C617.687317,547.908508 615.662720,552.182007 613.578003,556.337524 
	C612.191162,559.101929 612.353943,561.231445 614.213562,563.646362 
	C619.090942,569.979980 623.862488,576.397217 628.578247,582.852661 
	C633.128113,589.081055 633.107178,590.112671 628.504150,596.527832 
	C617.524841,611.829651 604.193542,624.758240 588.971375,635.812317 
	C584.868774,638.791565 581.286743,638.879456 577.233093,635.651794 
	C570.980469,630.673157 564.369751,626.145264 558.096985,621.190613 
	C555.311584,618.990540 553.029541,618.310364 549.628296,620.174927 
	C545.420349,622.481812 540.833313,624.169250 536.279663,625.748596 
	C533.078674,626.858887 531.535095,628.428345 531.144165,632.059143 
	C530.219788,640.645020 528.625244,649.157349 527.373901,657.709961 
	C526.812866,661.544128 524.605774,663.548096 520.895325,664.244934 
	C500.868408,668.006409 480.847107,667.813782 460.829315,664.213745 
	C457.358856,663.589600 455.161957,661.641846 454.630127,657.995483 
	C453.357697,649.271851 451.914886,640.570740 450.798065,631.827759 
	C450.410797,628.795959 449.228027,627.075867 446.305298,626.018127 
	C441.458771,624.264099 436.644165,622.332153 432.041809,620.024902 
	C429.010773,618.505554 426.820099,619.039124 424.320007,620.960510 
	C417.717987,626.034424 410.928925,630.864990 404.330719,635.943665 
	C400.631958,638.790710 397.228424,638.861816 393.413361,636.137939 
	C377.393921,624.700012 363.749634,610.940002 352.300262,594.935791 
	C349.519867,591.049316 349.784546,587.640320 352.534485,584.009888 
	C357.362152,577.636719 362.012177,571.126465 366.936890,564.830261 
	C369.228790,561.900024 369.897644,559.383484 367.965424,555.825684 
	C365.755493,551.756592 364.067108,547.324463 362.754791,542.872498 
	C361.670105,539.192566 359.375854,537.886597 355.964905,537.443115 
	C348.214355,536.435364 340.495667,535.135559 332.723785,534.355530 
	C327.609161,533.842163 324.794037,531.351318 323.952148,526.430176 
	C320.636353,507.048279 320.812042,487.662994 323.992096,468.286957 
	C324.763977,463.583923 327.420288,461.095917 332.360413,460.592682 
	C339.631683,459.851868 346.844666,458.556488 354.103241,457.666809 
	C358.689728,457.104675 362.343414,455.900055 363.315277,450.489227 
	C363.897186,447.249237 365.846191,444.734070 369.777679,444.665619 
	C374.496948,444.583527 377.836548,448.170654 376.680908,452.721802 
	C375.618530,456.905792 374.111328,460.984955 372.650970,465.056854 
	C371.736145,467.607635 369.825775,468.978699 367.045593,469.369263 
	C358.650085,470.548767 350.304077,472.171814 341.877686,473.002380 
	C337.428955,473.440887 336.592529,475.613525 336.119965,479.413391 
	C335.086456,487.724152 335.304840,496.036743 335.306396,504.838318 
z"/>
<path fill="#000000" opacity="1.000000" stroke="none" 
	d="
M509.213226,345.575409 
	C545.055542,353.627319 570.995422,385.906555 571.397827,422.039612 
	C571.699890,449.160095 560.824280,470.703339 539.712097,487.275513 
	C536.765137,489.588745 534.824280,492.040955 534.462463,495.785522 
	C534.254700,497.936523 534.759521,499.447113 536.455688,501.021210 
	C540.666077,504.928619 540.099426,509.496735 535.356873,512.553345 
	C531.068909,515.317017 529.985718,522.867920 533.339539,526.615601 
	C537.191528,530.919739 536.640381,535.115784 531.554199,538.066223 
	C529.957031,538.992737 529.000732,540.077759 528.467712,541.718201 
	C524.488525,553.965271 515.800476,560.159363 503.193390,560.766235 
	C494.217865,561.198303 485.205139,561.416321 476.233307,560.471985 
	C465.418518,559.333557 458.131744,553.463257 454.157471,543.473938 
	C453.151611,540.945740 452.192596,538.857178 449.532501,537.395996 
	C445.614838,535.244080 445.268707,530.808411 448.164764,527.116699 
	C452.169342,522.011841 451.269989,516.022461 445.908600,512.091370 
	C442.219208,509.386292 441.807251,505.349854 444.845947,501.680359 
	C448.856140,496.837799 448.234894,491.045013 443.377808,487.198273 
	C421.817444,470.122864 411.181488,447.833557 411.725525,420.321014 
	C412.448792,383.743408 441.463287,350.481079 477.575684,344.730560 
	C488.024414,343.066742 498.447815,342.939270 509.213226,345.575409 
M488.500000,478.071228 
	C500.488617,478.066864 512.477417,478.025421 524.465698,478.083435 
	C527.569885,478.098450 530.318359,477.552246 532.785767,475.448090 
	C552.965027,458.239716 561.557495,436.600983 556.556946,410.434937 
	C550.061157,376.445251 516.097229,352.110840 482.747345,357.651428 
	C454.766632,362.299988 435.595947,378.367706 427.932190,405.827423 
	C420.371765,432.916901 428.700562,455.934357 449.514313,474.610626 
	C452.279388,477.091736 455.299530,478.180420 459.027954,478.121490 
	C468.516510,477.971527 478.009064,478.071442 488.500000,478.071228 
M464.638092,513.593628 
	C461.984039,521.026001 464.311890,524.839905 471.497803,524.833679 
	C483.641388,524.823120 495.785004,524.822083 507.928558,524.800110 
	C519.506836,524.779175 516.865356,525.363586 518.190430,515.221191 
	C518.246216,514.793945 517.921631,514.317017 517.620605,513.390015 
	C500.264130,513.390015 482.841705,513.390015 464.638092,513.593628 
M468.629181,492.021851 
	C467.299377,492.025818 465.969604,492.031311 464.639801,492.033325 
	C462.087280,492.037231 461.158661,493.340942 461.273163,495.835541 
	C461.380554,498.175140 462.076935,499.668762 464.716003,499.666626 
	C482.175018,499.652527 499.634064,499.654846 517.093079,499.675537 
	C519.612000,499.678528 520.545105,498.431061 520.737122,496.000946 
	C521.074158,491.735291 518.145447,492.062103 515.486267,492.056488 
	C500.188629,492.024231 484.890961,492.034607 468.629181,492.021851 
M511.785980,543.512329 
	C512.852356,542.288513 514.242126,541.242981 514.138428,539.354858 
	C504.429810,537.427246 471.661835,537.940247 467.941437,540.176575 
	C470.006165,544.800781 473.726929,546.758667 478.579926,546.804871 
	C486.380890,546.879211 494.183960,546.772583 501.983856,546.891418 
	C505.450958,546.944153 508.555206,546.210205 511.785980,543.512329 
z"/>
<path fill="#000000" opacity="1.000000" stroke="none" 
	d="
M436.360413,579.701904 
	C410.824707,561.602722 396.469604,537.459961 393.478027,506.492859 
	C392.681030,498.243317 393.348938,490.244781 394.620514,482.183075 
	C395.663849,475.568298 398.507446,472.492645 402.965271,473.210022 
	C407.440491,473.930206 409.142456,477.738892 408.001465,484.475800 
	C405.913849,496.802063 406.409698,509.046936 409.812134,521.054871 
	C420.696869,559.469421 456.610809,584.917297 496.480072,582.640076 
	C535.627014,580.404175 570.251953,548.033447 574.494080,509.273224 
	C575.413330,500.873840 575.559204,492.310944 573.867554,483.882080 
	C573.639160,482.744171 573.589233,481.567078 573.502930,480.404694 
	C573.226746,476.682800 574.982483,474.269073 578.530029,473.449127 
	C582.328003,472.571289 585.108826,474.134033 586.320557,477.864410 
	C588.503723,484.584808 589.178040,491.657593 588.971619,498.571350 
	C587.968933,532.157837 574.371948,559.522705 546.658386,578.921509 
	C513.512329,602.122864 471.084900,602.206909 436.360413,579.701904 
z"/>
<path fill="#000000" opacity="1.000000" stroke="none" 
	d="
M338.236755,665.237122 
	C332.723297,670.814819 327.561646,676.249207 322.148468,681.420227 
	C319.474457,683.974670 318.937347,686.061096 320.732208,689.625916 
	C327.548859,703.165100 325.126099,719.476379 315.131500,730.589783 
	C305.227722,741.602112 289.361725,745.408142 274.866486,740.248718 
	C261.329834,735.430481 251.248489,721.944519 251.105927,706.896912 
	C250.838394,678.658630 278.650665,661.179626 303.868011,672.932007 
	C307.781616,674.755920 309.918396,674.360596 312.834503,671.370850 
	C325.616089,658.266602 338.650238,645.408691 351.593262,632.461975 
	C355.495422,628.558655 359.514343,628.021606 362.510223,631.000977 
	C365.404785,633.879578 365.010895,638.431580 361.434875,642.031860 
	C353.810303,649.708252 346.137756,657.336975 338.236755,665.237122 
M273.652283,723.895020 
	C274.468262,724.469360 275.255005,725.091553 276.104645,725.610840 
	C285.355896,731.265015 298.067963,729.263000 305.165344,721.049805 
	C312.458008,712.610596 312.788361,699.978760 305.933563,691.671631 
	C298.601074,682.785645 286.342804,680.339661 276.720123,685.842529 
	C262.702332,693.858826 260.996033,711.541931 273.652283,723.895020 
z"/>
<path fill="#000000" opacity="1.000000" stroke="none" 
	d="
M256.022980,281.215027 
	C263.953125,268.535095 275.270172,262.235260 289.689026,262.973724 
	C303.870758,263.700073 314.741302,270.782898 320.927429,283.746826 
	C326.077484,294.539429 326.072937,305.689087 320.457672,316.434326 
	C318.886566,319.440796 319.022308,321.242493 321.535248,323.707520 
	C334.730316,336.650848 347.712158,349.811523 360.764618,362.900146 
	C362.534241,364.674652 364.341522,366.405670 364.292511,369.233032 
	C364.244965,371.975372 363.143799,374.005829 360.715332,375.345947 
	C358.018768,376.834045 355.463013,376.370178 353.292969,374.505493 
	C350.646912,372.231750 348.223572,369.694977 345.745819,367.229828 
	C334.530823,356.071991 323.260315,344.968231 312.179169,333.678772 
	C309.709137,331.162323 307.836700,330.726898 304.478912,332.277100 
	C282.167297,342.577667 258.273376,331.657013 252.302017,308.602081 
	C249.852463,299.144531 251.366257,290.127930 256.022980,281.215027 
M302.704315,317.246460 
	C304.609039,315.825195 306.006775,313.964722 307.223511,311.960663 
	C312.298279,303.602173 312.309875,295.129547 307.002960,287.011871 
	C302.047974,279.432526 294.524231,275.712158 285.634460,276.686462 
	C275.725372,277.772522 268.782623,283.383575 265.845001,293.269714 
	C263.157471,302.314240 266.643616,312.633606 274.239746,318.188904 
	C282.657928,324.345459 292.429047,324.174347 302.704315,317.246460 
z"/>
<path fill="#000000" opacity="1.000000" stroke="none" 
	d="
M728.877319,311.566040 
	C720.573730,333.194489 698.064697,342.284210 677.557190,332.332153 
	C674.208252,330.706909 672.331848,331.176819 669.869080,333.670441 
	C657.110535,346.588715 644.186646,359.343658 631.333191,372.168396 
	C629.552490,373.945129 627.816895,375.802460 625.151062,376.119904 
	C622.169617,376.474884 619.910583,375.165466 618.543945,372.590210 
	C616.836060,369.371918 617.647339,366.504822 620.163208,363.986664 
	C627.226807,356.916656 634.261475,349.817749 641.320129,342.742859 
	C647.555847,336.492889 653.638916,330.075409 660.131409,324.103760 
	C663.016418,321.450226 663.144043,319.488953 661.428223,316.087189 
	C651.555481,296.512848 660.810913,272.680542 681.021729,265.341705 
	C695.364075,260.133759 708.606262,262.813477 719.462280,273.138580 
	C730.349548,283.493347 733.426086,296.601807 728.877319,311.566040 
M682.489075,279.899780 
	C673.469055,285.767792 669.219788,295.727936 671.690735,305.210571 
	C674.235535,314.976532 683.145203,322.267822 693.038635,322.680878 
	C702.533447,323.077271 711.665649,317.355499 715.370483,308.688812 
	C719.007446,300.180908 716.701111,289.225403 709.937927,282.882721 
	C702.716370,276.110168 692.809265,274.867371 682.489075,279.899780 
z"/>
<path fill="#000000" opacity="1.000000" stroke="none" 
	d="
M657.281738,678.716797 
	C645.497437,666.924072 633.958313,655.383606 622.423950,643.838501 
	C621.482849,642.896545 620.498474,641.983154 619.665405,640.950623 
	C617.048462,637.707581 616.455627,634.177673 619.550659,631.076599 
	C622.719666,627.901367 626.238953,628.596680 629.278259,631.533875 
	C633.947754,636.046387 638.506165,640.673950 643.104370,645.260132 
	C651.947021,654.079712 660.879700,662.812317 669.566772,671.782654 
	C672.208679,674.510620 674.263367,674.737976 677.757568,673.123474 
	C691.632141,666.713013 705.074280,667.846558 717.133362,677.459534 
	C729.094543,686.994629 733.169861,699.880493 729.696899,714.506348 
	C726.204346,729.214783 716.518433,738.673401 701.568115,741.695923 
	C687.592651,744.521362 675.273376,740.643738 666.121033,729.534241 
	C656.938110,718.387695 654.502625,705.362244 660.464661,692.126343 
	C663.220154,686.009155 662.563965,682.465088 657.281738,678.716797 
M697.070862,683.194580 
	C685.633728,682.514771 677.087952,687.254211 673.107544,696.484497 
	C669.304260,705.304016 671.291870,715.784668 678.003357,722.299500 
	C685.053345,729.143066 695.801575,730.889465 704.325745,726.576538 
	C713.163330,722.105042 717.921814,712.908691 716.770630,702.525269 
	C715.692383,692.799744 708.730347,685.685852 697.070862,683.194580 
z"/>
<path fill="#000000" opacity="1.000000" stroke="none" 
	d="
M523.791748,773.432251 
	C534.906616,799.277466 519.742981,824.587830 492.140594,826.900146 
	C474.919281,828.342834 456.329071,812.723389 454.718414,795.458191 
	C452.906677,776.037537 461.852478,761.533325 480.051880,755.085449 
	C483.318390,753.928223 483.979614,752.191345 483.971985,749.240173 
	C483.928528,732.425964 483.978943,715.611511 483.980347,698.797180 
	C483.980560,696.291931 483.955811,693.788452 484.920563,691.418701 
	C486.068939,688.598083 488.266418,687.373840 491.233032,687.513123 
	C494.153656,687.650330 496.509186,688.872070 497.203705,691.863098 
	C497.761963,694.267212 498.022949,696.791260 498.033112,699.263611 
	C498.100800,715.744812 498.151184,732.227173 497.998810,748.707214 
	C497.964294,752.440979 499.097626,754.352661 502.849945,755.501160 
	C512.191772,758.360596 518.988403,764.518738 523.791748,773.432251 
M513.798645,787.800232 
	C512.639038,778.114441 506.425262,770.281494 497.405609,767.953186 
	C488.126129,765.557800 479.800781,767.632751 473.529510,775.156311 
	C467.175598,782.778992 466.303070,791.390137 470.543213,800.332214 
	C475.075104,809.889465 485.969757,814.980530 496.489197,812.410461 
	C506.318756,810.008972 514.900024,800.195740 513.798645,787.800232 
z"/>
<path fill="#000000" opacity="1.000000" stroke="none" 
	d="
M291.960205,509.374023 
	C276.134430,509.380646 260.800629,509.518585 245.471802,509.302399 
	C241.492340,509.246246 239.718521,510.432983 238.430328,514.331421 
	C232.726334,531.593628 215.904144,541.765503 198.172882,539.116516 
	C180.935165,536.541199 167.486313,521.415833 166.880478,503.923279 
	C166.277008,486.498352 178.994431,470.203033 195.823486,466.837402 
	C214.197815,463.162781 232.301865,472.926758 238.191971,490.331482 
	C239.762650,494.972748 242.030258,495.968109 246.400620,495.914825 
	C262.730042,495.715698 279.063354,495.827393 295.395172,495.851227 
	C297.221222,495.853882 299.100983,495.797699 300.861725,496.190643 
	C304.619781,497.029388 306.632782,499.495361 306.238342,503.418701 
	C305.869446,507.088104 303.595245,509.080719 299.951202,509.309540 
	C297.460632,509.465942 294.953644,509.361267 291.960205,509.374023 
M211.673203,524.345520 
	C213.700851,523.216675 215.887238,522.299866 217.728439,520.921936 
	C225.388382,515.189270 228.628891,504.814056 225.694382,495.962036 
	C222.540741,486.448944 213.400345,479.204681 204.008057,479.599304 
	C194.310211,480.006775 186.700409,484.450439 182.720917,493.625153 
	C179.027863,502.139496 180.184296,510.351318 186.213074,517.421692 
	C192.765259,525.105835 201.115494,527.618713 211.673203,524.345520 
z"/>
<path fill="#000000" opacity="1.000000" stroke="none" 
	d="
M789.010132,467.693359 
	C805.696228,473.572784 816.121765,488.380249 815.089905,504.271027 
	C813.969482,521.526367 802.200806,535.238220 785.497803,538.749451 
	C767.588257,542.514282 749.105225,532.029175 743.672729,514.564636 
	C742.364136,510.357849 740.400452,509.256897 736.276550,509.308624 
	C719.802185,509.515411 703.323669,509.393280 686.846680,509.386536 
	C685.182739,509.385864 683.507446,509.458679 681.857178,509.296356 
	C678.202087,508.936859 676.092590,506.817932 675.769409,503.191833 
	C675.437805,499.472015 677.391724,497.151154 680.905151,496.308746 
	C682.655273,495.889130 684.527527,495.863525 686.345093,495.858948 
	C703.154846,495.816467 719.965576,495.726044 736.773987,495.877472 
	C740.457275,495.910675 742.390320,494.941772 743.643005,491.190338 
	C750.022644,472.085846 769.093140,462.209930 789.010132,467.693359 
M765.033264,521.534973 
	C771.892212,526.144897 779.133728,526.988831 786.891541,523.999451 
	C797.347290,519.970520 803.213928,508.559204 800.574036,497.113953 
	C798.242798,487.007477 787.254822,478.720306 777.250488,479.523529 
	C767.986633,480.267273 759.237793,486.863220 756.450073,495.205353 
	C753.264282,504.738739 756.138916,514.043579 765.033264,521.534973 
z"/>
<path fill="#000000" opacity="1.000000" stroke="none" 
	d="
M483.983704,271.993469 
	C483.981476,266.666290 483.801849,261.829102 484.035583,257.011963 
	C484.214325,253.328110 483.026520,251.452744 479.312988,250.141647 
	C455.954315,241.894745 447.141541,215.083084 460.819672,194.518219 
	C469.288147,181.786057 486.249359,175.823364 501.368561,180.263260 
	C516.479370,184.700699 527.115967,198.402130 527.392822,213.786224 
	C527.713562,231.603806 519.174622,244.181595 502.221832,250.350327 
	C498.996155,251.524063 497.902069,253.140610 497.984833,256.518219 
	C498.200989,265.337250 498.078156,274.165680 498.016510,282.989807 
	C497.997925,285.649414 497.906281,288.383759 495.967834,290.516083 
	C494.087555,292.584442 491.628143,292.899658 489.070160,292.268494 
	C486.101074,291.535950 484.578552,289.270752 484.372223,286.455658 
	C484.032196,281.816559 484.092529,277.148163 483.983704,271.993469 
M476.296234,233.237167 
	C477.545441,234.063110 478.739838,234.990723 480.052673,235.698685 
	C489.490356,240.788239 500.558624,238.961273 507.931702,231.144241 
	C514.945923,223.707672 515.915588,211.992249 510.271057,202.881393 
	C505.135162,194.591583 494.262268,190.619232 484.471161,193.455475 
	C467.214508,198.454300 462.621246,219.174149 476.296234,233.237167 
z"/>
<path fill="#000000" opacity="1.000000" stroke="none" 
	d="
M598.723389,415.672729 
	C604.485657,416.133240 607.295715,418.539734 607.169556,422.509735 
	C607.044250,426.454468 603.873108,429.092377 598.847412,429.211884 
	C594.542969,429.314270 590.230225,429.329224 585.927734,429.185699 
	C581.393250,429.034393 578.340515,426.183502 578.304016,422.359222 
	C578.265259,418.292084 581.021912,415.787445 585.834229,415.690704 
	C589.974060,415.607452 594.116882,415.671692 598.723389,415.672729 
z"/>
<path fill="#000000" opacity="1.000000" stroke="none" 
	d="
M430.222229,350.870972 
	C432.218506,354.722229 431.982025,358.148682 428.642212,360.458557 
	C425.056732,362.938293 421.712921,361.572449 418.852325,358.650909 
	C416.178864,355.920502 413.425903,353.267822 410.758057,350.532043 
	C407.122803,346.804260 406.501953,342.293884 409.173553,339.489899 
	C411.877136,336.652222 416.431641,337.090698 420.161682,340.695190 
	C423.505859,343.926788 426.729675,347.282959 430.222229,350.870972 
z"/>
<path fill="#000000" opacity="1.000000" stroke="none" 
	d="
M399.928223,415.388794 
	C403.239258,417.639526 404.386505,420.365601 403.156097,423.815338 
	C401.970520,427.139282 399.136078,428.113281 395.994568,428.197418 
	C391.338348,428.322113 386.668121,428.391602 382.018860,428.169678 
	C377.788086,427.967743 375.217163,425.543701 374.935944,421.247833 
	C374.691071,417.506927 377.671753,414.715729 382.144440,414.740540 
	C387.948303,414.772705 393.781799,414.098114 399.928223,415.388794 
z"/>
<path fill="#000000" opacity="1.000000" stroke="none" 
	d="
M562.225586,360.630066 
	C558.564636,363.117310 555.272400,363.064545 552.648193,359.883392 
	C549.782043,356.408936 550.933472,353.100372 553.830383,350.176270 
	C557.093079,346.882996 560.320435,343.551361 563.671509,340.349915 
	C566.783081,337.377258 570.171021,337.207367 573.404663,340.127594 
	C576.178040,342.632233 576.051392,346.650055 573.045654,349.827026 
	C569.632874,353.434326 566.028320,356.860229 562.225586,360.630066 
z"/>
<path fill="#000000" opacity="1.000000" stroke="none" 
	d="
M497.246429,309.203186 
	C499.176361,315.949097 498.368805,322.441589 498.032379,328.848541 
	C497.848785,332.345154 495.188477,334.301910 491.468842,334.355255 
	C487.910278,334.406311 485.534882,332.478302 485.077271,329.256195 
	C484.237457,323.342834 484.127014,317.270294 485.044159,311.392334 
	C486.014618,305.172394 491.827972,304.106628 497.246429,309.203186 
z"/>
</svg>