<svg version="1.1" id="Layer_1" xmlns="http://www.w3.org/2000/svg" xmlns:xlink="http://www.w3.org/1999/xlink" x="0px" y="0px"
	 width="100%" viewBox="0 0 1024 1024" enable-background="new 0 0 1024 1024" xml:space="preserve">
<path fill="#000000" opacity="1.000000" stroke="none" 
	d="
M506.658264,677.999878 
	C506.658997,658.167480 506.576172,638.834473 506.727844,619.503296 
	C506.760315,615.360840 506.110291,613.613525 501.166016,613.112732 
	C484.395416,611.414246 468.812134,605.794922 455.059540,595.882080 
	C448.266479,590.985718 449.373077,591.833618 444.218323,596.941101 
	C418.292267,622.629944 392.528687,648.482849 366.721008,674.291016 
	C347.983917,693.028503 329.333191,711.853149 310.477173,730.469971 
	C307.278625,733.627930 306.847900,735.968323 309.432220,739.794495 
	C324.138336,761.567078 323.006073,797.973083 305.762146,819.381592 
	C291.558563,837.015381 273.688721,846.195862 250.767517,846.525818 
	C229.576416,846.830750 212.102509,839.400085 198.032867,824.021729 
	C187.179169,812.158569 181.029663,798.124939 180.600784,781.731750 
	C180.301636,770.296997 181.237534,759.239014 186.013992,748.617188 
	C194.061172,730.721680 206.946823,717.990845 225.535278,711.646606 
	C248.240189,703.897644 269.981354,706.011108 290.233429,719.482788 
	C291.054474,720.028870 291.928070,720.495911 292.005402,720.541748 
	C339.783691,672.835999 387.341278,625.350586 435.156158,577.608276 
	C426.108459,566.704224 419.359161,553.865723 415.644989,539.532043 
	C414.402588,534.737427 413.203979,529.846680 412.838654,524.936401 
	C412.546600,521.010437 410.854889,520.217224 407.489655,520.315247 
	C402.327698,520.465698 397.158020,520.349976 391.991638,520.349854 
	C333.661224,520.348755 275.330444,520.431396 217.000916,520.204956 
	C211.780289,520.184692 210.202011,522.138367 209.376266,526.688416 
	C204.163788,555.409790 180.135025,579.004211 151.540649,582.116516 
	C119.481850,585.605896 94.469551,573.841309 78.477654,544.749207 
	C73.990067,536.585510 71.741455,527.553528 71.577454,518.018982 
	C71.378479,506.451477 72.016724,495.159668 76.834389,484.360931 
	C87.164154,461.206909 111.535477,443.847931 137.016281,443.471741 
	C154.852463,443.208405 170.824402,447.012817 184.836807,458.353302 
	C197.721695,468.781250 206.066681,481.944763 209.258820,498.189636 
	C210.040665,502.168365 211.459167,503.753693 215.707718,503.745636 
	C279.371002,503.624817 343.034668,503.604340 406.697754,503.766663 
	C411.282928,503.778351 412.842194,502.031616 413.338257,497.966553 
	C415.034088,484.068695 419.810333,471.243622 427.241119,459.414062 
	C429.699249,455.500824 432.425415,451.755951 434.956726,448.040253 
	C434.295227,445.945587 432.734772,444.869141 431.464294,443.597778 
	C386.581696,398.683350 341.654816,353.813080 296.846832,308.824371 
	C293.868011,305.833496 291.875397,305.319000 288.175171,307.862213 
	C249.151550,334.683533 189.951935,315.035126 180.596237,263.569458 
	C172.979156,221.667999 199.183670,186.432205 237.880310,181.041077 
	C278.970276,175.316528 311.542572,199.773041 317.891388,238.906189 
	C320.445923,254.651886 318.852570,270.788116 309.531372,285.007935 
	C305.474731,291.196564 305.672302,291.309601 310.964020,296.599213 
	C355.632050,341.249176 400.295532,385.903687 444.964905,430.552307 
	C446.134949,431.721863 447.356049,432.840332 448.807159,434.224731 
	C452.187347,431.986664 455.441528,429.740112 458.784515,427.634644 
	C472.369202,419.079132 487.152496,414.008331 503.165314,412.682220 
	C505.740295,412.468933 506.703918,411.270874 506.642090,408.866669 
	C506.607819,407.534454 506.651367,406.200378 506.651398,404.867126 
	C506.653748,342.370239 506.569824,279.873016 506.808014,217.377045 
	C506.828583,211.977570 504.911804,210.112015 500.126892,209.368927 
	C469.533264,204.617798 444.360596,174.458817 444.379913,143.426514 
	C444.393341,121.905807 450.873383,103.958878 466.525299,89.483398 
	C478.476257,78.430687 492.498322,71.893738 509.150208,71.616669 
	C520.366760,71.430031 531.269897,72.128922 541.837891,76.617249 
	C565.380981,86.616234 583.038574,111.719780 583.587830,137.191254 
	C584.058960,159.038544 577.447571,177.367630 561.756592,192.288940 
	C552.582092,201.013428 541.661316,206.972092 529.072266,209.253448 
	C524.896362,210.010239 523.252563,211.638962 523.261536,216.093674 
	C523.389648,279.756897 523.389771,343.420593 523.248718,407.083771 
	C523.239929,411.046051 524.520752,412.992889 528.227356,413.455688 
	C547.039001,415.804535 563.430420,423.664368 578.295532,435.521606 
	C581.105042,434.251709 582.904053,431.792664 584.968933,429.730804 
	C629.306946,385.459564 673.579102,341.122284 717.997314,296.931793 
	C720.689636,294.253296 720.449707,292.540070 718.481750,289.871918 
	C699.160583,263.676483 702.685791,220.169647 729.418274,197.449142 
	C741.915833,186.827240 756.205933,180.914474 773.011292,180.495514 
	C790.727783,180.053864 806.545105,184.313705 820.244141,195.615341 
	C835.449341,208.159485 844.308167,224.094147 845.341064,244.020401 
	C845.958252,255.925995 844.885986,267.481110 839.795715,278.577545 
	C830.125305,299.658051 814.099426,313.314453 791.647644,318.044250 
	C772.979004,321.977020 754.537781,319.923767 738.065430,308.967163 
	C735.239197,307.087341 733.516907,307.465576 731.237671,309.750397 
	C686.394043,354.704163 641.508789,399.616547 596.551270,444.456421 
	C593.084900,447.913727 592.329956,450.249725 595.674011,454.809753 
	C604.615356,467.002319 610.230774,480.835693 612.329834,495.923218 
	C613.403625,503.641327 613.296387,503.662659 621.088013,503.662781 
	C683.918213,503.663696 746.748596,503.597656 809.578308,503.775085 
	C814.998108,503.790375 816.800659,502.098541 817.915894,496.776794 
	C824.149292,467.030396 852.953735,443.505890 882.934631,443.395844 
	C904.379272,443.317139 922.477722,449.575348 937.072083,465.075226 
	C948.583130,477.300476 954.882874,491.778381 955.505188,508.962708 
	C956.159912,527.040527 951.963623,543.246338 940.311401,557.164673 
	C927.587036,572.363647 911.606018,581.597412 891.400757,582.326660 
	C880.407410,582.723511 869.593689,582.265869 859.170105,577.706726 
	C845.503967,571.729370 834.630249,562.814026 826.640564,550.200195 
	C821.580750,542.211975 818.432739,533.553162 816.954834,524.323425 
	C816.425903,521.020569 815.023499,520.298401 812.048584,520.319519 
	C798.549988,520.415649 785.050293,520.342529 771.550964,520.342102 
	C721.386780,520.340454 671.222534,520.395142 621.058655,520.263428 
	C616.132324,520.250488 613.476746,520.697083 612.823730,526.809509 
	C610.840088,545.377014 603.352478,561.922119 591.856750,576.554077 
	C593.143188,579.751221 595.768921,581.423584 597.830566,583.489868 
	C641.968628,627.727966 686.201782,671.871277 730.276611,716.172119 
	C733.347229,719.258484 735.299805,718.978516 738.650635,716.796387 
	C765.216980,699.495850 806.278992,703.027344 829.245117,730.092957 
	C856.719971,762.472229 850.505310,816.621887 808.107788,838.292297 
	C780.411194,852.448730 744.285828,846.989563 722.612061,821.819824 
	C701.708191,797.544250 701.061157,757.681702 719.540955,734.380432 
	C719.835632,734.008911 719.958801,733.501343 720.162170,733.056763 
	C719.522705,730.966064 717.744568,729.863953 716.363953,728.482788 
	C671.474976,683.574768 626.544189,638.708557 581.704102,593.751831 
	C579.303589,591.345032 577.745239,590.639893 574.735352,592.977478 
	C560.967651,603.669739 545.486511,610.503052 528.077026,612.649414 
	C524.505615,613.089722 523.256714,614.844971 523.263794,618.617004 
	C523.383850,682.946899 523.385803,747.277161 523.265503,811.607056 
	C523.257751,815.746460 524.958496,817.043640 528.642517,817.703125 
	C558.923340,823.123962 583.464172,852.384155 583.607788,883.324158 
	C583.730408,909.748047 573.858276,930.242798 552.155579,944.597656 
	C530.646484,958.824463 507.009705,959.878845 484.190765,949.230469 
	C459.312317,937.620911 445.732208,917.209961 444.548462,888.970032 
	C443.639374,867.281860 450.696960,849.095642 466.443604,834.447388 
	C475.819733,825.725342 486.833679,819.669128 499.729218,817.611328 
	C506.646210,816.507385 506.651184,816.490173 506.651886,809.492737 
	C506.656158,765.828491 506.656708,722.164185 506.658264,677.999878 
M435.370300,530.153259 
	C446.864441,574.320862 486.433868,599.599060 530.075256,590.653870 
	C570.926697,582.280518 599.180115,539.413330 591.371582,498.904755 
	C582.951904,455.225708 540.471436,426.042877 496.067535,435.226501 
	C454.567474,443.809540 425.503784,488.161804 435.370300,530.153259 
M172.179062,549.696716 
	C185.398804,537.039307 191.825989,521.779724 188.128723,503.539551 
	C183.304077,479.737396 161.011383,462.667786 136.371826,465.302887 
	C109.685982,468.156830 92.772301,489.785187 92.775566,513.337158 
	C92.777870,529.894165 100.552803,543.765442 114.670319,553.100708 
	C123.657463,559.043518 133.620590,561.734985 144.728394,560.881348 
	C155.010895,560.091187 163.418884,555.612915 172.179062,549.696716 
M752.637451,734.199219 
	C738.446045,740.785034 725.837769,761.796997 728.208984,780.623169 
	C732.570129,815.248047 768.420776,834.480774 798.608948,818.179565 
	C827.106018,802.791504 833.384216,764.078552 808.945496,741.106323 
	C794.943420,727.944458 773.280029,722.795837 752.637451,734.199219 
M890.592407,465.339294 
	C887.668945,464.984741 884.806030,464.973907 881.809814,465.179199 
	C855.999084,466.948151 835.546021,491.634644 838.211609,517.321899 
	C841.105042,545.204895 866.856873,565.525757 894.428955,560.373962 
	C926.255127,554.427490 944.175415,518.778503 928.210144,490.432678 
	C920.054993,475.953217 907.886169,467.590790 890.592407,465.339294 
M470.489075,120.914536 
	C466.536865,128.342010 465.800293,136.298706 466.300323,144.553299 
	C468.004150,172.680389 495.008881,193.788757 522.643188,188.324432 
	C555.385925,181.850006 571.686157,145.943588 556.067505,118.152443 
	C546.743103,101.560890 532.123474,92.728188 513.786011,92.865654 
	C494.617401,93.009346 479.575745,102.365074 470.489075,120.914536 
M220.766525,288.658630 
	C235.823730,299.265900 251.891632,301.279816 268.670959,293.517090 
	C287.014435,285.030701 296.859467,269.871429 297.132446,250.153397 
	C297.376099,232.556427 288.968536,218.362671 273.594025,208.795898 
	C257.990082,199.086319 235.652725,199.869614 221.025314,211.075241 
	C205.876892,222.679962 198.650833,238.003159 201.515961,257.058197 
	C203.425140,269.755615 209.389160,280.582153 220.766525,288.658630 
M511.918976,933.979553 
	C525.443115,934.812317 537.164917,929.977844 546.679382,920.956360 
	C557.623413,910.579407 562.779846,897.583618 561.775330,882.019226 
	C559.976990,854.152527 531.981323,832.778748 504.075470,838.923340 
	C483.188904,843.522400 467.437805,862.387329 466.097961,883.344971 
	C464.428162,909.462769 486.437897,933.252686 511.918976,933.979553 
M807.043884,286.522766 
	C818.732727,275.287903 825.090942,262.120544 823.776672,245.360077 
	C821.632507,218.016953 793.966614,197.361816 766.885620,202.893921 
	C743.293518,207.713303 725.329285,230.874893 728.328003,254.962021 
	C730.351318,271.214081 738.206543,283.733124 752.543091,291.669830 
	C771.445435,302.134186 789.458679,299.796844 807.043884,286.522766 
M226.658020,735.196960 
	C207.819336,745.614502 198.816742,767.041199 202.624954,785.563904 
	C208.329514,813.310242 234.479935,830.488770 261.544617,823.463684 
	C287.110535,816.827576 302.475525,792.028992 296.957092,767.036438 
	C290.145538,736.187561 256.841156,719.332947 226.658020,735.196960 
z"/>
<path fill="#000000" opacity="1.000000" stroke="none" 
	d="
M566.717529,487.496735 
	C582.370239,522.001709 564.166687,558.278320 532.260620,568.572937 
	C491.259064,581.802185 450.531036,548.261292 455.778595,505.677704 
	C458.767883,481.419495 477.867249,460.506836 501.347778,455.782166 
	C527.018066,450.616882 552.418213,461.931519 564.876648,484.085632 
	C565.447998,485.101624 565.985413,486.136688 566.717529,487.496735 
M539.161804,485.333252 
	C531.429260,478.586609 522.370239,474.874146 512.177612,475.517365 
	C488.786774,476.993500 472.991882,497.838287 477.405487,520.788330 
	C480.693451,537.885193 498.402405,552.036743 515.440063,550.557617 
	C531.132019,549.195312 542.821777,541.429504 548.742065,526.528198 
	C554.873535,511.095154 550.934631,497.553131 539.161804,485.333252 
z"/>
</svg>